<?xml version="1.0" encoding="UTF-8"?>
<svg xmlns="http://www.w3.org/2000/svg" viewBox="0 0 479.86 558.12">
  <polygon points="56.39 56.56 65.28 53.22 63.06 57.89 56.39 56.56" style="fill: #37bb0f;"/>
  <polygon points="107.83 47.98 113.94 47.09 112.83 50.09 107.83 47.98" style="fill: #43a8f6;"/>
  <polygon points="146.5 36.22 153.5 35.44 151.83 39 146.5 36.22" style="fill: #37bb0f;"/>
  <polygon points="209.39 47.56 259.61 43.56 236.06 59.44 209.39 47.56" style="fill: #ffd52a;"/>
  <polygon points="269.94 42.22 275.17 36.67 276.83 43.67 269.94 42.22" style="fill: #37bb0f;"/>
  <polygon points="0 126.17 10 133.67 3.33 137.83 0 126.17" style="fill: #43a8f6;"/>
  <polygon points="68.5 123.67 74.83 122.33 74.33 125.67 68.5 123.67" style="fill: #43a8f6;"/>
  <polygon points="34.5 177.33 41.17 176.67 39.5 179.83 34.5 177.33" style="fill: #43a8f6;"/>
  <polygon points="76.5 152.33 81.5 149.17 86.17 156.17 76.5 152.33" style="fill: #d60505;"/>
  <polygon points="348.67 149.33 355.33 148.17 353.5 152.33 348.67 149.33" style="fill: #43a8f6;"/>
  <polygon points="368 198.83 376.33 195.5 374.33 200.5 368 198.83" style="fill: #37bb0f;"/>
  <polygon points="421.5 216.5 427.33 215.67 427.33 219 421.5 216.5" style="fill: #43a8f6;"/>
  <polygon points="406.79 98.92 414.21 109.96 403.54 121.5 406.79 98.92" style="fill: #62c543;"/>
  <polygon points="382.6 86.83 387.06 93.67 377.6 89.83 382.6 86.83" style="fill: #43a8f6;"/>
  <polygon points="346 29.17 356.5 36.67 349.33 40.33 346 29.17" style="fill: #43a8f6;"/>
  <polygon points="416.67 27.5 425.33 24.17 423.17 29.17 416.67 27.5" style="fill: #d60505;"/>
  <polygon points="435.17 .33 442.17 0 440.67 4.17 435.17 .33" style="fill: #43a8f6;"/>
</svg>
